<?xml version="1.0" encoding="utf-8"?>
<!-- Generator: Adobe Illustrator 23.0.3, SVG Export Plug-In . SVG Version: 6.00 Build 0)  -->
<svg version="1.1" id="Calque_1" xmlns="http://www.w3.org/2000/svg" xmlns:xlink="http://www.w3.org/1999/xlink" x="0px" y="0px"
	 viewBox="0 0 1417.32 308.09" style="enable-background:new 0 0 1417.32 308.09;" xml:space="preserve">
<style type="text/css">
	.st0{fill:#FFFFFF;}
</style>
<g>
	<path class="st0" d="M122.4,25.66H25.68v161.08l29.6,29.59l-29.6,29.6v48.71h54.54v-25.88l24.95-24.95h2.54v27.75h14.7h39.84h14.7
		v-27.75h2.54l24.95,24.95v25.87h54.54v-48.71l-29.59-29.6l29.59-29.59V25.66h-96.72H122.4z M107.71,189.28h-2.54l-24.95-24.95V80.2
		h27.48V189.28z M176.94,80.2h27.48v84.14l-24.95,24.94h-2.54V80.2z"/>
	<polygon class="st0" points="316.93,196.53 300.05,213.41 316.93,230.3 316.93,264.16 353.45,286.92 353.45,150.79 316.93,150.79 	
		"/>
	<polygon class="st0" points="381.51,151.45 381.51,286.98 417.86,286.98 417.86,187.81 480.34,187.81 480.34,287.31 516.53,287.31 
		516.53,167.32 500.83,151.45 	"/>
	<polygon class="st0" points="618.51,250.62 580.99,250.62 580.99,151.45 544.63,151.45 544.63,286.98 639,286.98 654.7,271.11 
		654.7,151.45 618.51,151.45 	"/>
	<path class="st0" d="M698.5,151.45l-15.7,15.87v119.66h36.36V237.4h61.81v49.58h36.19V167.32l-15.7-15.87H698.5z M780.97,205.6
		h-61.81v-17.79h61.81V205.6z"/>
	<polygon class="st0" points="979.3,187.81 964.08,151.45 861.13,151.45 845.43,167.32 845.43,221.53 861.13,234.35 943.11,234.35 
		943.11,250.62 845.43,250.62 860.65,286.98 963.6,286.98 979.3,271.11 979.3,216.74 963.6,204.08 881.79,204.08 881.79,187.81 	"/>
	<rect x="1007.4" y="151.45" class="st0" width="36.36" height="135.53"/>
	<path class="st0" d="M1087.39,151.45l-15.7,15.87v103.8l15.7,15.86h103.13l15.7-15.86v-103.8l-15.7-15.87H1087.39z M1170.03,250.62
		h-61.98v-62.81h61.98V250.62z"/>
	<g>
		<polygon class="st0" points="390.97,113.03 390.97,91.01 331.6,91.01 331.6,81.49 375.99,81.49 375.99,63.98 331.6,63.98 
			331.6,52.96 390.97,52.96 390.97,30.94 319.09,30.94 309.58,40.55 309.58,103.42 319.09,113.03 		"/>
		<polygon class="st0" points="457.94,113.03 457.94,91.01 427.71,91.01 427.71,29.1 405.68,29.1 405.68,103.42 415.19,113.03 		"/>
		<polygon class="st0" points="553.95,113.03 553.95,91.01 494.58,91.01 494.58,81.49 538.97,81.49 538.97,63.98 494.58,63.98 
			494.58,52.96 553.95,52.96 553.95,30.94 482.06,30.94 472.55,40.55 472.55,103.42 482.06,113.03 		"/>
		<polygon class="st0" points="568.66,40.55 568.66,103.42 578.17,113.03 650.05,113.03 650.05,91.01 590.68,91.01 590.68,52.96 
			650.05,52.96 650.05,30.84 578.17,30.94 		"/>
		<polygon class="st0" points="695,112.93 716.92,112.93 716.92,52.86 746.46,52.86 746.46,30.84 664.66,30.94 664.66,52.96 
			695,52.86 		"/>
		<path class="st0" d="M836.45,71.98l6.01-6.11V40.55l-9.51-9.61h-71.98v82.09h22.03V83h33.02l4.52,30.03h21.93L836.45,71.98z
			 M820.53,63.98h-37.54V52.96h37.54V63.98z"/>
		<path class="st0" d="M932.04,113.03l9.51-9.61V40.55l-9.51-9.61h-62.47l-9.51,9.61v62.87l9.51,9.61H932.04z M882.09,52.96h37.54
			v38.05h-37.54V52.96z"/>
		<path class="st0" d="M959.17,30.94v82.09h71.88l9.51-9.61V78.09l-6.01-6.11l6.01-6.11V40.55l-9.51-9.61H959.17z M1018.64,91.01
			H981.2V79.98h37.44V91.01z M1018.64,60.97H981.2V49.95h37.44V60.97z"/>
		<path class="st0" d="M1130.17,113.03l9.52-9.61V40.55l-9.52-9.61h-62.47l-9.51,9.61v62.87l9.51,9.61H1130.17z M1080.22,52.96
			h37.54v38.05h-37.54V52.96z"/>
		<polygon class="st0" points="1236.09,30.84 1154.3,30.94 1154.3,52.96 1184.63,52.86 1184.63,112.93 1206.55,112.93 
			1206.55,52.86 1236.09,52.86 		"/>
		<polygon class="st0" points="1275.64,30.82 1253.62,30.94 1253.62,113.03 1275.64,113.03 		"/>
		<polygon class="st0" points="1318.12,83 1355.96,113.03 1374.62,113.03 1374.62,103.48 1336.41,70.92 1374.62,38.35 
			1374.62,30.94 1355.96,30.94 1318.12,60.97 1318.12,30.94 1296.1,30.94 1296.1,113.03 1318.12,113.03 		"/>
	</g>
	<polygon class="st0" points="1391.64,211.14 1369.51,189.02 1369.51,167.32 1353.81,151.45 1234.48,151.45 1234.48,285.72 
		1270.84,285.52 1270.84,187.81 1333.31,187.81 1333.31,287.31 1369.51,264.32 1369.51,233.26 	"/>
</g>
</svg>
