<?xml version="1.0" encoding="utf-8"?>
<svg version="1.1" id="Calque_1" xmlns="http://www.w3.org/2000/svg" xmlns:xlink="http://www.w3.org/1999/xlink" x="0px" y="0px" viewBox="0 0 430.83 628.25" style="enable-background:new 0 0 430.83 628.25;" xml:space="preserve">
<style type="text/css">
  .st0{fill:#FFFFFF;}
	.st0{ 
		filter: url(#filter);
		fill: white;
    	font-family: 'Share Tech Mono', sans-serif;
    	font-size: 100px;
		-webkit-font-smoothing: antialiased;
		-moz-osx-font-smoothing: grayscale;
     		}

</style>
	<defs>

		<filter id="filter">
		    <feFlood flood-color="black" result="black" />
		    <feFlood flood-color="red" result="flood1" />
		    <feFlood flood-color="limegreen" result="flood2" />
			<feOffset in="SourceGraphic" dx="3" dy="0" result="off1a"/>
			<feOffset in="SourceGraphic" dx="2" dy="0" result="off1b"/>
			<feOffset in="SourceGraphic" dx="-3" dy="0" result="off2a"/>
			<feOffset in="SourceGraphic" dx="-2" dy="0" result="off2b"/>
		    <feComposite in="flood1" in2="off1a" operator="in"  result="comp1" />
		    <feComposite in="flood2" in2="off2a" operator="in" result="comp2" />

 		  	<feMerge x="0" width="100%" result="merge1">
				<feMergeNode in = "black" />
				<feMergeNode in = "comp1" />
				<feMergeNode in = "off1b" />

				<animate 
					attributeName="y" 
		    		id = "y"
		    		dur ="4s"
		    		
		    		values = '104px; 104px; 30px; 105px; 30px; 2px; 2px; 50px; 40px; 105px; 105px; 20px; 6ßpx; 40px; 104px; 40px; 70px; 10px; 30px; 104px; 102px'

		    		keyTimes = '0; 0.362; 0.368; 0.421; 0.440; 0.477; 0.518; 0.564; 0.593; 0.613; 0.644; 0.693; 0.721; 0.736; 0.772; 0.818; 0.844; 0.894; 0.925; 0.939; 1'

		    		repeatCount = "indefinite" />
 
				<animate attributeName="height" 
		    		id = "h" 
		    		dur ="4s"
		    		
		    		values = '10px; 0px; 10px; 30px; 50px; 0px; 10px; 0px; 0px; 0px; 10px; 50px; 40px; 0px; 0px; 0px; 40px; 30px; 10px; 0px; 50px'

		    		keyTimes = '0; 0.362; 0.368; 0.421; 0.440; 0.477; 0.518; 0.564; 0.593; 0.613; 0.644; 0.693; 0.721; 0.736; 0.772; 0.818; 0.844; 0.894; 0.925; 0.939; 1'

		    		repeatCount = "indefinite" />
		    </feMerge>
 			

 			<feMerge x="0" width="100%" y="60px" height="65px" result="merge2">
				<feMergeNode in = "black" />
				<feMergeNode in = "comp2" />
				<feMergeNode in = "off2b" />

				<animate attributeName="y" 
		    		id = "y"
		    		dur ="4s"
		    		values = '103px; 104px; 69px; 53px; 42px; 104px; 78px; 89px; 96px; 100px; 67px; 50px; 96px; 66px; 88px; 42px; 13px; 100px; 100px; 104px;' 

		    		keyTimes = '0; 0.055; 0.100; 0.125; 0.159; 0.182; 0.202; 0.236; 0.268; 0.326; 0.357; 0.400; 0.408; 0.461; 0.493; 0.513; 0.548; 0.577; 0.613; 1'

 		    		repeatCount = "indefinite" />
 
				<animate attributeName="height" 
		    		id = "h"
		    		dur = "4s"
					
					values = '0px; 0px; 0px; 16px; 16px; 12px; 12px; 0px; 0px; 5px; 10px; 22px; 33px; 11px; 0px; 0px; 10px'

		    		keyTimes = '0; 0.055; 0.100; 0.125; 0.159; 0.182; 0.202; 0.236; 0.268; 0.326; 0.357; 0.400; 0.408; 0.461; 0.493; 0.513;  1'
		    		 
		    		repeatCount = "indefinite" />
		    </feMerge>
			
		 	<feMerge>
 				<feMergeNode in="SourceGraphic" />	

				<feMergeNode in="merge1" /> 
 			<feMergeNode in="merge2" />

		    </feMerge>
	    </filter>

	</defs>

<path class="st0" d="M180.46,5.16H6.47v289.78l53.24,53.24L6.47,401.42v87.62h98.11v-46.55l44.88-44.87h4.56v49.92h26.44h71.68  h26.44v-49.92h4.57l44.88,44.88v46.54h98.11v-87.62l-53.24-53.24l53.24-53.24V5.16H252.13H180.46z M154.02,299.5h-4.56l-44.88-44.87  V103.27h49.44V299.5z M278.57,103.27h49.44v151.36l-44.88,44.87h-4.57V103.27z"/>
<g>
	<polygon class="st0" points="8.28,582.55 1.65,589.19 8.28,595.83 8.28,609.14 22.64,618.09 22.64,564.57 8.28,564.57  "/>
	<polygon class="st0" points="33.67,564.83 33.67,618.12 47.97,618.12 47.97,579.13 72.53,579.13 72.53,618.25 86.76,618.25    86.76,571.07 80.59,564.83  "/>
	<polygon class="st0" points="126.86,603.82 112.11,603.82 112.11,564.83 97.81,564.83 97.81,618.12 134.91,618.12 141.09,611.88    141.09,564.83 126.86,564.83  "/>
	<path class="st0" d="M158.31,564.83l-6.17,6.24v47.05h14.3v-19.49h24.3v19.49h14.23v-47.05l-6.17-6.24H158.31z M190.74,586.12   h-24.3v-6.99h24.3V586.12z"/>
	<polygon class="st0" points="268.71,579.13 262.73,564.83 222.25,564.83 216.08,571.07 216.08,592.38 222.25,597.42 254.48,597.42    254.48,603.82 216.08,603.82 222.06,618.12 262.54,618.12 268.71,611.88 268.71,590.5 262.54,585.52 230.37,585.52 230.37,579.13     "/>
	<rect x="279.76" y="564.83" class="st0" width="14.3" height="53.29"/>
	<path class="st0" d="M311.21,564.83l-6.17,6.24v40.81l6.17,6.24h40.55l6.17-6.24v-40.81l-6.17-6.24H311.21z M343.7,603.82h-24.37   v-24.69h24.37V603.82z"/>
	<g>
		<polygon class="st0" points="37.39,549.72 37.39,541.06 14.05,541.06 14.05,537.32 31.5,537.32 31.5,530.44 14.05,530.44     14.05,526.11 37.39,526.11 37.39,517.45 9.13,517.45 5.39,521.23 5.39,545.95 9.13,549.72   "/>
		<polygon class="st0" points="63.73,549.72 63.73,541.06 51.84,541.06 51.84,516.72 43.18,516.72 43.18,545.95 46.92,549.72   "/>
		<polygon class="st0" points="101.47,549.72 101.47,541.06 78.13,541.06 78.13,537.32 95.58,537.32 95.58,530.44 78.13,530.44     78.13,526.11 101.47,526.11 101.47,517.45 73.21,517.45 69.47,521.23 69.47,545.95 73.21,549.72   "/>
		<polygon class="st0" points="107.26,521.23 107.26,545.95 111,549.72 139.26,549.72 139.26,541.06 115.92,541.06 115.92,526.11     139.26,526.11 139.26,517.41 111,517.45   "/>
		<polygon class="st0" points="156.93,549.69 165.55,549.69 165.55,526.07 177.16,526.07 177.16,517.41 145,517.45 145,526.11     156.93,526.07   "/>
		<path class="st0" d="M212.55,533.59l2.36-2.4v-9.96l-3.74-3.78h-28.3v32.28h8.66v-11.81h12.98l1.78,11.81h8.62L212.55,533.59z     M206.29,530.44h-14.76v-4.33h14.76V530.44z"/>
		<path class="st0" d="M250.13,549.72l3.74-3.78v-24.72l-3.74-3.78h-24.56l-3.74,3.78v24.72l3.74,3.78H250.13z M230.49,526.11h14.76    v14.96h-14.76V526.11z"/>
		<path class="st0" d="M260.8,517.45v32.28h28.26l3.74-3.78v-9.96l-2.36-2.4l2.36-2.4v-9.96l-3.74-3.78H260.8z M284.18,541.06    h-14.72v-4.34h14.72V541.06z M284.18,529.25h-14.72v-4.33h14.72V529.25z"/>
		<path class="st0" d="M328.03,549.72l3.74-3.78v-24.72l-3.74-3.78h-24.56l-3.74,3.78v24.72l3.74,3.78H328.03z M308.39,526.11h14.76    v14.96h-14.76V526.11z"/>
		<polygon class="st0" points="369.68,517.41 337.52,517.45 337.52,526.11 349.44,526.07 349.44,549.69 358.06,549.69     358.06,526.07 369.68,526.07   "/>
		<polygon class="st0" points="385.23,517.4 376.57,517.45 376.57,549.72 385.23,549.72   "/>
		<polygon class="st0" points="401.93,537.91 416.81,549.72 424.14,549.72 424.14,545.97 409.12,533.16 424.14,520.36     424.14,517.45 416.81,517.45 401.93,529.25 401.93,517.45 393.27,517.45 393.27,549.72 401.93,549.72   "/>
	</g>
	<polygon class="st0" points="430.83,588.3 422.13,579.6 422.13,571.07 415.96,564.83 369.04,564.83 369.04,618.08 383.34,618.16    383.34,579.13 407.9,579.13 407.9,618.25 422.13,609.21 422.13,597  "/>
</g>
</svg>
